<!-- Generated by IcoMoon.io -->
<svg version="1.1" xmlns="http://www.w3.org/2000/svg" width="41" height="32" viewBox="0 0 41 32">
<path fill="#fff" d="M16.778 0.847c1.657-0.548 2.228-0.689 2.887-0.781s1.271-0.088 1.93 0.010c0.658 0.098 1.227 0.245 2.879 0.81l11.72 4.013c1.586 0.543 2.121 0.858 2.647 1.309s0.913 0.993 1.169 1.637c0.256 0.644 0.38 1.252 0.38 2.93v18.475c0 0.822-0.085 1.119-0.246 1.42s-0.396 0.536-0.696 0.697-0.598 0.246-1.418 0.246h-35.478c-0.821 0-1.118-0.086-1.418-0.246s-0.535-0.396-0.696-0.697c-0.16-0.3-0.246-0.598-0.246-1.42v-18.435c0-1.69 0.127-2.302 0.387-2.95s0.653-1.192 1.186-1.643c0.533-0.45 1.074-0.763 2.677-1.294l12.337-4.083zM3.26 28.542h10.177v-15.545c0-0.68 0.551-1.231 1.231-1.231h11.246c0.68 0 1.231 0.551 1.231 1.231v15.545h10.177v-17.766c0-1.191-0.043-1.493-0.163-1.795-0.072-0.181-0.166-0.313-0.314-0.44-0.246-0.211-0.518-0.35-1.644-0.735l-11.72-4.013c-1.404-0.481-1.861-0.607-2.337-0.679-0.369-0.055-0.688-0.057-1.057-0.005-0.477 0.066-0.936 0.188-2.344 0.654l-12.337 4.083c-1.136 0.376-1.41 0.513-1.659 0.724-0.15 0.127-0.246 0.259-0.319 0.442-0.122 0.303-0.166 0.607-0.166 1.804v17.726z"></path>
</svg>
